<svg xmlns="http://www.w3.org/2000/svg" width="30" height="30"><g fill="none" fill-rule="evenodd"><path fill="#FFF" fill-rule="nonzero" d="M16.843 10.53h1.5c.322 0 .584-.25.584-.558V7.665a.572.572 0 00-.583-.558h-2.06l-.103-.002c-.389 0-1.74.074-2.813 1.018-1.171 1.03-1.06 2.264-1.01 2.568v1.503h-1.491a.572.572 0 00-.583.558v2.482c0 .307.261.558.583.558h1.405v6.514c0 .308.261.558.583.558h2.939c.321 0 .583-.25.583-.558v-6.482h1.664a.574.574 0 00.58-.494l.302-2.514a.543.543 0 00-.144-.435.596.596 0 00-.435-.187h-1.967v-1.262c0-.26.074-.402.466-.402zm-.794 2.292h2.213l-.286 2.374H16.05a.321.321 0 00-.328.314v6.726h-2.793v-6.758a.321.321 0 00-.328-.314h-1.66v-2.342h1.746a.32.32 0 00.328-.314v-1.843a.302.302 0 00-.005-.053c-.034-.19-.158-1.181.803-2.027.898-.79 2.04-.852 2.37-.852a1.765 1.765 0 01.094.002h1.995v2.168h-1.428c-.703 0-1.122.385-1.122 1.03v1.575a.32.32 0 00.328.314z"/><path fill="#FFF" fill-rule="nonzero" d="M13.588 17.684a.321.321 0 00-.328.314v.157a.32.32 0 00.328.314.32.32 0 00.328-.314v-.157a.321.321 0 00-.328-.314zm0 1.162a.321.321 0 00-.328.314v2.385a.32.32 0 00.328.314.32.32 0 00.328-.314V19.16a.321.321 0 00-.328-.314z"/><circle cx="15" cy="15" r="14.435" stroke="#FFF" stroke-width="1.129"/></g></svg>