<svg xmlns="http://www.w3.org/2000/svg" width="30" height="30"><g fill="none" fill-rule="evenodd"><circle cx="15" cy="15" r="14.435" stroke="#FFF" stroke-width="1.129"/><g fill="#FFF" fill-rule="nonzero"><path d="M10.949 11.983H7.905a.56.56 0 00-.559.559v9.777a.56.56 0 00.56.559h3.043a.56.56 0 00.559-.56v-9.776a.56.56 0 00-.56-.56zm-.07 10.266H7.975v-9.637h2.904v9.637zm.19-14.447a2.306 2.306 0 00-1.64-.68 2.324 2.324 0 00-2.324 2.32 2.325 2.325 0 002.323 2.322 2.324 2.324 0 002.321-2.321 2.3 2.3 0 00-.68-1.64zm-1.64 3.333c-.935 0-1.695-.76-1.695-1.692a1.695 1.695 0 012.89-1.196 1.694 1.694 0 01-1.196 2.888zm12.763 2.301c-.664-1.126-1.842-1.696-3.502-1.696-1.069 0-1.846.364-2.363.74a.56.56 0 00-.556-.498h-2.914a.56.56 0 00-.56.56v9.777a.56.56 0 00.56.559h3.037a.56.56 0 00.559-.56v-4.837c0-1.64.444-1.95 1.264-1.95.802 0 1.022.437 1.022 2.034v4.754c0 .308.25.56.559.56h3.038a.56.56 0 00.559-.56v-5.363c0-1.084-.08-2.463-.703-3.52zm.074 8.813h-2.898v-4.684c0-.637-.018-1.3-.23-1.797-.244-.575-.722-.866-1.42-.866-1.67 0-1.894 1.304-1.894 2.58v4.767h-2.897v-9.637H15.7v.565a.315.315 0 00.547.212c.35-.38 1.132-1.02 2.442-1.02 3.143 0 3.576 2.204 3.576 4.587v5.293z"/><path d="M8.615 18.334a.315.315 0 00-.315.315v2.925a.315.315 0 10.63 0v-2.925a.315.315 0 00-.315-.315zm0-1.321a.315.315 0 00-.315.315v.283a.315.315 0 10.63 0v-.283a.315.315 0 00-.315-.315z"/></g></g></svg>