<svg xmlns="http://www.w3.org/2000/svg" viewBox="0 0 30 30"><circle cx="15" cy="15" r="14.4" fill="none" stroke="#fff" stroke-miterlimit="10"/><path d="M22.7 10.4c-.1-.1-.2-.1-.3 0-.1.1-.4.2-.6.2.6-.7.6-1.1.6-1.2 0-.2-.2-.3-.3-.3-.1 0-.1 0-.2.1-.7.5-1.4.6-1.8.6-.6-.6-1.4-.9-2.3-.9-1.8 0-3.3 1.5-3.3 3.4v.5c-3.2 0-5.8-3.1-5.8-3.1-.1-.1-.3-.1-.4 0l-.1.1c-.9 1.6-.3 3 .3 3.8-.1 0-.2-.1-.2-.1-.1-.1-.3-.1-.4.1 0 .1-.1.1-.1.2 0 1.5.7 2.4 1.4 2.9-.2 0-.3.1-.3.3v.1c.5 1.6 1.6 2.1 2.4 2.3-1.5 1.2-3.8.8-3.8.8-.2 0-.3.1-.3.2s0 .2.1.3c1.6 1.2 3.5 1.5 4.9 1.5.6 0 1.3-.1 1.9-.2 7.1-1.7 7.3-8.1 7.2-9.2 1.3-1.2 1.5-1.7 1.6-1.8 0-.4-.1-.6-.2-.6zm-1.9 1.8c-.1.1-.1.1-.1.2 0 .3.4 7-6.8 8.7 0 0-2.9.6-5.3-.6 1 0 2.5-.3 3.6-1.5.1-.1.1-.3 0-.4-.1 0-.1-.1-.2-.1 0 0-1.6 0-2.3-1.5.3 0 .6 0 .9-.1.1-.1.2-.2.1-.4 0-.1-.1-.1-.2-.2-.1 0-1.8-.4-2.1-2.3.3.1.6.2.9.2.2 0 .3-.2.3-.3 0-.1 0-.1-.1-.2s-1.7-1.5-.9-3.4c.8.9 3.3 3.2 6.4 3 .2 0 .3-.2.3-.3v-.1c-.1-.2-.1-.5-.1-.7 0-1.5 1.2-2.8 2.8-2.8.7 0 1.4.3 2 .8.1.1.1.1.2.1.3 0 .8 0 1.4-.3-.2.3-.5.5-.8.8-.1.1-.2.3-.1.4.1.1.2.1.3.1.1 0 .4 0 .8-.1l-1 1z" fill="#fff"/></svg>