<svg xmlns="http://www.w3.org/2000/svg" width="21" height="21" viewBox="0 0 21 21">
    <g fill="#FFF" fill-rule="nonzero">
        <path d="M17.87 3.066A10.399 10.399 0 0 0 10.467 0a10.399 10.399 0 0 0-7.402 3.066A10.399 10.399 0 0 0 0 10.468c0 2.796 1.089 5.424 3.066 7.401a10.399 10.399 0 0 0 7.402 3.066c2.796 0 5.424-1.088 7.401-3.066a10.399 10.399 0 0 0 3.066-7.401c0-2.796-1.088-5.425-3.066-7.402zm-7.402 17.035c-5.312 0-9.634-4.321-9.634-9.633 0-5.312 4.322-9.634 9.634-9.634S20.1 5.156 20.1 10.468 15.78 20.1 10.468 20.1z"/>
        <path d="M18.896 12.19a.417.417 0 0 0-.507.302 8.11 8.11 0 0 1-1.15 2.556.417.417 0 0 0 .69.468 8.941 8.941 0 0 0 1.269-2.819.417.417 0 0 0-.302-.507zM19.059 10.05a.417.417 0 0 0-.417.418c0 .119-.003.24-.008.357a.417.417 0 1 0 .833.036c.006-.13.009-.262.009-.393a.417.417 0 0 0-.417-.417zM10.468 7.069c-.805 0-1.46.655-1.46 1.46v7.256c0 .805.655 1.46 1.46 1.46.805 0 1.46-.655 1.46-1.46V8.528c0-.804-.655-1.46-1.46-1.46zm.625 8.716a.626.626 0 0 1-1.25 0V8.528a.626.626 0 0 1 1.25 0v7.257zM11.5 4.118a1.471 1.471 0 0 0-1.032-.427c-.384 0-.76.155-1.033.427a1.47 1.47 0 0 0-.427 1.032c0 .384.156.76.428 1.033.272.271.648.427 1.032.427.383 0 .76-.156 1.032-.428s.427-.648.427-1.032-.155-.76-.427-1.032zm-.59 1.475a.632.632 0 0 1-.442.183.631.631 0 0 1-.442-.183.63.63 0 0 1 0-.885.632.632 0 0 1 .442-.183c.164 0 .326.067.442.183a.63.63 0 0 1 0 .885z"/>
    </g>
</svg>
