<svg xmlns="http://www.w3.org/2000/svg" width="30" height="30" viewBox="0 0 30 30">
    <g fill="none" fill-rule="evenodd">
        <circle cx="15" cy="15" r="14.435" stroke="#FFF" stroke-width="1.129"/>
        <g fill="#FFF" fill-rule="nonzero">
            <path d="M18.186 7.105h-6.372a4.694 4.694 0 0 0-4.689 4.69v6.41a4.694 4.694 0 0 0 4.689 4.69h6.372a4.694 4.694 0 0 0 4.689-4.69v-6.41a4.694 4.694 0 0 0-4.689-4.69zm4.06 11.1a4.064 4.064 0 0 1-4.06 4.06h-6.372a4.064 4.064 0 0 1-4.06-4.06v-6.41a4.064 4.064 0 0 1 4.06-4.06h6.372a4.064 4.064 0 0 1 4.06 4.06v6.41z"/>
            <path d="M18.186 8.903h-6.372a2.895 2.895 0 0 0-2.891 2.891v6.412a2.895 2.895 0 0 0 2.891 2.891h6.372a2.895 2.895 0 0 0 2.891-2.891v-6.412a2.895 2.895 0 0 0-2.891-2.891zm2.262 9.303a2.265 2.265 0 0 1-2.262 2.262h-6.372a2.265 2.265 0 0 1-2.262-2.262v-6.412a2.265 2.265 0 0 1 2.262-2.262h6.372a2.265 2.265 0 0 1 2.262 2.262v6.412z"/>
            <path d="M15 10.935A4.07 4.07 0 0 0 10.935 15 4.07 4.07 0 0 0 15 19.065 4.07 4.07 0 0 0 19.065 15 4.07 4.07 0 0 0 15 10.935zm0 7.501A3.44 3.44 0 0 1 11.564 15 3.44 3.44 0 0 1 15 11.564 3.44 3.44 0 0 1 18.436 15 3.44 3.44 0 0 1 15 18.436z"/>
            <path d="M15 12.688A2.314 2.314 0 0 0 12.688 15 2.314 2.314 0 0 0 15 17.312 2.314 2.314 0 0 0 17.312 15 2.314 2.314 0 0 0 15 12.688zm0 3.995A1.685 1.685 0 0 1 13.317 15c0-.928.755-1.683 1.683-1.683s1.683.755 1.683 1.683-.755 1.683-1.683 1.683zM18.839 10.184a.978.978 0 0 0 0 1.954.978.978 0 0 0 0-1.954zm0 1.325a.348.348 0 1 1 0-.696.348.348 0 0 1 0 .696zM14.497 21.385H11.54a.315.315 0 1 0 0 .629h2.957a.315.315 0 1 0 0-.629zM15.692 21.385h-.189a.315.315 0 0 0 0 .629h.189a.315.315 0 1 0 0-.629z"/>
        </g>
    </g>
</svg>
