<svg xmlns="http://www.w3.org/2000/svg" width="190" height="47" viewBox="0 0 190 47">
    <g fill="none" fill-rule="evenodd">
        <path fill="#FFF" d="M48.367 22.858l-.043-7.191h2.026v10.371h-1.87l-4.83-7.176.043 7.176h-2.026V15.667h1.884zM53.778 20.958c0 1.892 1.374 3.546 3.414 3.546 2.124 0 3.37-1.821 3.37-3.531 0-1.738-1.246-3.562-3.384-3.562-2.097 0-3.4 1.71-3.4 3.534v.013zm-2.111.084c0-3.321 2.578-5.466 5.495-5.466 3.174 0 5.511 2.44 5.511 5.382 0 2.944-2.323 5.382-5.524 5.382-3.216 0-5.482-2.51-5.482-5.284v-.014zM62.5 15.576h2.182l2.62 7.877 2.649-7.877h2.181L68.38 25.947H66.24zM73.778 20.958c0 1.892 1.374 3.546 3.414 3.546 2.124 0 3.37-1.821 3.37-3.531 0-1.738-1.246-3.562-3.385-3.562-2.096 0-3.4 1.71-3.4 3.534v.013zm-2.111.084c0-3.321 2.578-5.466 5.495-5.466 3.174 0 5.511 2.44 5.511 5.382 0 2.944-2.323 5.382-5.524 5.382-3.216 0-5.482-2.51-5.482-5.284v-.014zM91.634 18.955a3.416 3.416 0 0 0-.78-.855 3.186 3.186 0 0 0-2.01-.688c-1.686 0-3.4 1.263-3.4 3.519 0 2.34 1.728 3.573 3.4 3.573.835 0 1.544-.238 2.082-.63.552-.392.92-.952 1.076-1.57h-3.91v-1.683h6.346c.03.688-.07 1.74-.466 2.609-.978 2.157-3.23 3.11-5.114 3.11-3.13 0-5.525-2.396-5.525-5.41 0-3.097 2.494-5.354 5.554-5.354 2.365 0 4.447 1.487 5.126 3.379h-2.379zM95.833 15.576h3.173c1.629 0 2.565.253 3.13.659.866.617 1.332 1.668 1.332 2.816 0 .757-.213 1.43-.566 1.935-.454.66-1.048.953-1.729 1.122l2.338 3.84h-2.21l-2.82-4.823h.412c.694 0 1.445-.041 1.884-.377.411-.336.665-.883.665-1.513 0-.631-.311-1.206-.778-1.501-.382-.238-.893-.322-1.487-.322h-1.233v8.535h-2.11V15.576z"/>
        <path fill="#FFF" d="M108.418 18.043l-1.486 4.205h3.016l-1.53-4.205zm-2.79 7.904h-2.295l4.25-10.371h1.856l4.15 10.371h-2.309l-.765-2.032h-4.136l-.75 2.032zM117.11 24.112h1.488c2.266 0 3.145-1.472 3.145-3.336 0-.813-.213-1.68-.708-2.326-.44-.561-1.147-1.038-2.422-1.038h-1.502v6.7zM115 15.576h3.33c1.302 0 3.2.126 4.447 1.794.765.953 1.077 2.104 1.077 3.38 0 2.927-1.559 5.198-5.37 5.198H115V15.576zM131.7 22.767l-.043-7.191h2.026v10.371h-1.87l-4.83-7.176.044 7.176H125V15.576h1.883zM140.84 22.12c0 1.109-.1 1.768-.328 2.285-.21.436-.621.883-1.047 1.15a3.641 3.641 0 0 1-1.998.589c-.452 0-2.79-.155-3.229-2.51-.042-.209-.056-.447-.071-.686h2.252c0 .098.015.183.03.28.154.674.58 1.08 1.118 1.08.581-.015.894-.322 1.02-.674.127-.322.142-.686.142-1.008v-7.05h2.111v6.545zM145.918 18.043l-1.487 4.205h3.017l-1.53-4.205zm-2.79 7.904h-2.295l4.25-10.371h1.856l4.15 10.371h-2.309l-.765-2.032h-4.136l-.75 2.032z"/>
        <path fill="#50E3B3" d="M152.5 25.896h1.94v-2.074h-1.94zM165.625 22.669c-.638 2.145-2.678 3.672-5.128 3.672-3.202 0-5.497-2.51-5.497-5.395 0-2.762 2.168-5.37 5.483-5.37 3.016.015 4.73 2.215 5.142 3.729H163.4c-.326-.715-1.26-1.878-2.93-1.893-2.04 0-3.36 1.696-3.36 3.534 0 1.89 1.375 3.56 3.373 3.56 1.869 0 2.72-1.459 2.917-1.837h2.225zM168.778 20.958c0 1.892 1.373 3.546 3.413 3.546 2.125 0 3.372-1.821 3.372-3.531 0-1.738-1.247-3.562-3.385-3.562-2.097 0-3.4 1.71-3.4 3.534v.013zm-2.111.084c0-3.321 2.578-5.466 5.495-5.466 3.175 0 5.512 2.44 5.512 5.382 0 2.944-2.324 5.382-5.526 5.382-3.215 0-5.481-2.51-5.481-5.284v-.014zM178.333 25.947V15.576h2.849l2.69 7.442 2.65-7.442h2.861v10.371h-1.955l.057-8.311-2.933 8.311h-1.388l-2.946-8.311.057 8.311z"/>
        <path fill="#FFF" d="M47.594 37.415l-.011-6.997h.915v8.378h-.915l-5.024-7.053.023 7.053h-.915v-8.378h.961zM50 30.418h4.69v.826h-3.752v2.91h3.73v.826h-3.73v2.99h3.753v.826H50zM55 30.418h.972l1.923 7.099 1.854-7.099h.709l1.889 7.099 1.899-7.099h.96l-2.369 8.378h-.925l-1.809-6.805-1.807 6.805h-.95zM70.105 37.97h1.682c2.174 0 3.307-1.326 3.307-3.34 0-.975-.263-1.835-.824-2.446-.537-.566-1.328-.94-2.483-.94h-1.682v6.725zm-.938-7.552h2.529c1.2 0 2.482.26 3.329 1.256.687.747 1.018 1.733 1.018 2.921 0 2.526-1.453 4.2-4.302 4.2h-2.574v-8.377zM77.5 30.418h4.692v.826h-3.754v2.91h3.731v.826h-3.73v2.99h3.753v.826H77.5zM82.5 30.418h.995l2.804 7.166 2.815-7.166h.995l-3.363 8.378h-.905zM90.833 30.418h4.692v.826h-3.753v2.91h3.73v.826h-3.73v2.99h3.753v.826h-4.692zM96.667 30.418h.95v7.551h3.226v.827h-4.176zM100.95 34.755c0 1.97 1.5 3.51 3.48 3.51 2.002 0 3.466-1.597 3.466-3.51 0-1.913-1.464-3.51-3.478-3.51-1.991 0-3.467 1.563-3.467 3.499v.011zm-.95.023c0-2.582 2.027-4.36 4.418-4.36 2.484 0 4.416 1.88 4.416 4.337s-1.922 4.336-4.416 4.336c-2.506 0-4.418-1.913-4.418-4.302v-.011zM110.95 34.674h1.35c.71 0 1.145-.079 1.568-.35.366-.237.63-.77.63-1.358 0-.601-.264-1.132-.641-1.37-.424-.273-.858-.352-1.58-.352h-1.327v3.43zm1.282-4.256c1.189 0 1.75.135 2.277.531.56.432.903 1.213.903 1.994 0 .792-.354 1.596-.869 1.992-.56.43-1.133.566-2.23.566h-1.363v3.295H110v-8.378h2.232zM115.833 38.796v-8.378h1.328l3.135 7.031 3.124-7.03h1.328v8.377h-.894l.023-7.45-3.284 7.45h-.606l-3.295-7.45.022 7.45zM126.667 30.418h4.69v.826h-3.751v2.91h3.73v.826h-3.73v2.99h3.751v.826h-4.69zM138.428 37.414l-.012-6.996h.915v8.378h-.915l-5.023-7.053.021 7.053h-.914v-8.378h.96zM142.083 31.244H140v-.826h5.125v.826h-2.093v7.552h-.949zM145.95 36.612c.138 1.391 1.168 1.686 1.692 1.686.882 0 1.694-.667 1.694-1.596 0-1.177-1.019-1.438-2.002-1.755-.686-.203-2.163-.633-2.163-2.218-.023-1.483 1.224-2.31 2.518-2.31 1.052 0 2.266.577 2.403 2.162h-.938c-.104-.543-.379-1.369-1.5-1.369-.847 0-1.546.566-1.546 1.437-.009 1.02.826 1.269 2.107 1.699.8.306 2.06.747 2.06 2.286 0 1.37-1.042 2.457-2.622 2.457-1.417 0-2.597-.882-2.653-2.479h.95zM154.167 30.418h4.301v.826h-3.364v2.944h3.342v.838h-3.342v3.77h-.937zM159.167 38.796h.939v-8.378h-.94zM167.593 37.414l-.01-6.996h.915v8.378h-.915l-5.025-7.053.023 7.053h-.914v-8.378h.96zM170.94 37.97h1.68c2.173 0 3.306-1.326 3.306-3.34 0-.975-.262-1.835-.823-2.446-.537-.566-1.327-.94-2.482-.94h-1.682v6.725zm-.94-7.552h2.528c1.201 0 2.484.26 3.33 1.256.687.747 1.019 1.733 1.019 2.921 0 2.526-1.454 4.2-4.304 4.2H170v-8.377zM178.333 30.418h4.691v.826h-3.753v2.91H183v.826h-3.73v2.99h3.753v.826h-4.69zM184.167 30.418h2.208c1.328 0 1.945.158 2.38.43.687.408 1.156 1.302 1.156 2.253.01.565-.149 1.166-.504 1.641-.502.68-1.108.84-1.888.918l2.107 3.136h-1.031l-2.39-3.657h.272c.596 0 1.42-.012 1.877-.43.448-.43.642-.94.642-1.54 0-.624-.31-1.28-.835-1.619-.423-.272-.951-.306-1.718-.306h-1.326v7.552h-.95v-8.378z"/>
        <path fill="#50E3B3" d="M28.626 31.866c-3.694 5.503-8.491 9.611-10.435 11.159-3.358-2.668-15.216-12.943-15.216-24.898 0-8.372 6.4-14.451 15.217-14.451 8.816 0 15.213 6.079 15.213 14.451 0 2.968-.734 5.833-1.887 8.505l2.266 2.242c1.563-3.295 2.596-6.92 2.596-10.747C36.38 8.21 28.562.734 18.192.734S0 8.21 0 18.127C0 33.468 16.612 45.573 17.32 46.08a1.49 1.49 0 0 0 1.744-.002c.434-.31 6.833-4.978 11.728-12.071l-2.166-2.141z"/>
        <path fill="#FFF" d="M17.594 21.892a5.44 5.44 0 0 1-3.856-1.581 5.324 5.324 0 0 1-1.595-3.814c0-2.976 2.449-5.398 5.46-5.398 1.456 0 2.824.56 3.853 1.58a5.328 5.328 0 0 1 1.595 3.815c0 2.976-2.448 5.398-5.457 5.398m14.697 7.072l-7.782-7.71a8.233 8.233 0 0 0 1.516-4.76 8.244 8.244 0 0 0-2.464-5.898 8.432 8.432 0 0 0-5.967-2.441c-4.647 0-8.427 3.743-8.427 8.34 0 2.227.876 4.323 2.467 5.898a8.423 8.423 0 0 0 5.96 2.443 8.43 8.43 0 0 0 4.811-1.503l7.782 7.712c.28.277.654.43 1.051.43a1.49 1.49 0 0 0 1.053-.43 1.457 1.457 0 0 0 0-2.081"/>
    </g>
</svg>
