<?xml version="1.0" encoding="utf-8"?>
<!-- Generator: Adobe Illustrator 21.0.0, SVG Export Plug-In . SVG Version: 6.00 Build 0)  -->
<svg version="1.1" id="Layer_1" xmlns="http://www.w3.org/2000/svg" xmlns:xlink="http://www.w3.org/1999/xlink" x="0px" y="0px"
	 viewBox="0 0 50 50" style="enable-background:new 0 0 50 50;" xml:space="preserve">
<style type="text/css">
	.st0{fill:#FFFFFF;}
</style>
<title>mobile-open</title>
<path class="st0" d="M13.3,14.7h23.5c1.2,0,2.2,1,2.2,2.2l0,0c0,1.2-1,2.2-2.2,2.2H13.3c-1.2,0-2.2-1-2.2-2.2l0,0
	C11.1,15.7,12,14.7,13.3,14.7z"/>
<path class="st0" d="M13.3,22.8h23.5c1.2,0,2.2,1,2.2,2.2l0,0c0,1.2-1,2.2-2.2,2.2H13.3c-1.2,0-2.2-1-2.2-2.2l0,0
	C11.1,23.8,12,22.8,13.3,22.8z"/>
<path class="st0" d="M13.3,30.9h23.5c1.2,0,2.2,1,2.2,2.2l0,0c0,1.2-1,2.2-2.2,2.2H13.3c-1.2,0-2.2-1-2.2-2.2l0,0
	C11.1,31.9,12,30.9,13.3,30.9z"/>
</svg>
