<?xml version="1.0" encoding="utf-8"?>
<!-- Generator: Adobe Illustrator 21.0.0, SVG Export Plug-In . SVG Version: 6.00 Build 0)  -->
<svg version="1.1" id="Layer_1" xmlns="http://www.w3.org/2000/svg" xmlns:xlink="http://www.w3.org/1999/xlink" x="0px" y="0px"
	 viewBox="0 0 30 30" style="enable-background:new 0 0 30 30;" xml:space="preserve">
<style type="text/css">
	.st0{fill:none;stroke:#FFFFFF;stroke-miterlimit:10;}
	.st1{fill:#FFFFFF;}
</style>
<circle class="st0" cx="15" cy="15" r="14.4"/>
<path class="st1" d="M22.7,10.4c-0.1-0.1-0.2-0.1-0.3,0c-0.1,0.1-0.4,0.2-0.6,0.2c0.6-0.7,0.6-1.1,0.6-1.2c0-0.2-0.2-0.3-0.3-0.3
	c-0.1,0-0.1,0-0.2,0.1c-0.7,0.5-1.4,0.6-1.8,0.6c-0.6-0.6-1.4-0.9-2.3-0.9c-1.8,0-3.3,1.5-3.3,3.4c0,0.2,0,0.3,0,0.5
	c-3.2,0-5.8-3.1-5.8-3.1c-0.1-0.1-0.3-0.1-0.4,0c0,0,0,0-0.1,0.1c-0.9,1.6-0.3,3,0.3,3.8c-0.1,0-0.2-0.1-0.2-0.1
	c-0.1-0.1-0.3-0.1-0.4,0.1c0,0.1-0.1,0.1-0.1,0.2c0,1.5,0.7,2.4,1.4,2.9c-0.2,0-0.3,0.1-0.3,0.3c0,0,0,0.1,0,0.1
	c0.5,1.6,1.6,2.1,2.4,2.3c-1.5,1.2-3.8,0.8-3.8,0.8c-0.2,0-0.3,0.1-0.3,0.2c0,0.1,0,0.2,0.1,0.3c1.6,1.2,3.5,1.5,4.9,1.5
	c0.6,0,1.3-0.1,1.9-0.2c7.1-1.7,7.3-8.1,7.2-9.2c1.3-1.2,1.5-1.7,1.6-1.8C22.9,10.6,22.8,10.4,22.7,10.4L22.7,10.4z M20.8,12.2
	c-0.1,0.1-0.1,0.1-0.1,0.2c0,0.3,0.4,7-6.8,8.7c0,0-2.9,0.6-5.3-0.6c1,0,2.5-0.3,3.6-1.5c0.1-0.1,0.1-0.3,0-0.4
	c-0.1,0-0.1-0.1-0.2-0.1h0c0,0-1.6,0-2.3-1.5c0.3,0,0.6,0,0.9-0.1c0.1-0.1,0.2-0.2,0.1-0.4c0-0.1-0.1-0.1-0.2-0.2
	c-0.1,0-1.8-0.4-2.1-2.3c0.3,0.1,0.6,0.2,0.9,0.2c0.2,0,0.3-0.2,0.3-0.3c0-0.1,0-0.1-0.1-0.2c-0.1-0.1-1.7-1.5-0.9-3.4
	c0.8,0.9,3.3,3.2,6.4,3c0.2,0,0.3-0.2,0.3-0.3c0,0,0,0,0-0.1c-0.1-0.2-0.1-0.5-0.1-0.7c0-1.5,1.2-2.8,2.8-2.8c0.7,0,1.4,0.3,2,0.8
	c0.1,0.1,0.1,0.1,0.2,0.1c0.3,0,0.8,0,1.4-0.3c-0.2,0.3-0.5,0.5-0.8,0.8c-0.1,0.1-0.2,0.3-0.1,0.4c0.1,0.1,0.2,0.1,0.3,0.1
	c0.1,0,0.4,0,0.8-0.1C21.5,11.5,21.2,11.8,20.8,12.2z"/>
</svg>
