<svg xmlns="http://www.w3.org/2000/svg" width="32" height="21" viewBox="0 0 32 21">
    <g fill="none" fill-rule="nonzero">
        <path fill="#41479B" d="M29.603 0H2.397A2.398 2.398 0 0 0 0 2.4v16.2C0 19.925 1.073 21 2.397 21h27.206A2.399 2.399 0 0 0 32 18.6V2.4C32 1.075 30.927 0 29.603 0z"/>
        <path fill="#F5F5F5" d="M31.967 2.004A2.398 2.398 0 0 0 29.603 0h-.623L18.759 6.708V0H13.24v6.708L3.021 0h-.624A2.398 2.398 0 0 0 .033 2.004L8.77 7.737H0v5.526h8.77L.032 18.996A2.398 2.398 0 0 0 2.397 21h.623l10.221-6.708V21h5.518v-6.708L28.979 21h.624a2.398 2.398 0 0 0 2.364-2.004l-8.736-5.733H32V7.737h-8.77l8.737-5.733z"/>
        <g fill="#FF4B55">
            <path d="M17.655.017h-3.31v8.828H0v3.31h14.345v8.828h3.31v-8.828H32v-3.31H17.655z"/>
            <path d="M1.55 20.828l11.661-7.57h-2.027L.577 20.145c.26.303.593.54.973.684zM21.65 13.259h-2.027l11.294 7.331c.316-.207.58-.488.768-.817L21.65 13.259zM.253 1.342l9.858 6.4h2.027L.968.49c-.3.223-.546.515-.715.852zM20.785 7.741L31.413.843a2.4 2.4 0 0 0-.982-.679L18.76 7.741h2.026z"/>
        </g>
    </g>
</svg>
